<svg width="45" height="39" viewBox="0 0 45 39" fill="none" xmlns="http://www.w3.org/2000/svg">
<path d="M31.1667 36.9997V33.1108C31.1667 31.048 30.3472 29.0697 28.8886 27.6111C27.43 26.1525 25.4517 25.333 23.3889 25.333H9.77778C7.71498 25.333 5.73667 26.1525 4.27806 27.6111C2.81944 29.0697 2 31.048 2 33.1108V36.9997" stroke="#02A9EB" stroke-width="3" stroke-linecap="round" stroke-linejoin="round"/>
<path d="M16.5832 17.5556C20.8787 17.5556 24.361 14.0733 24.361 9.77778C24.361 5.48223 20.8787 2 16.5832 2C12.2876 2 8.80542 5.48223 8.80542 9.77778C8.80542 14.0733 12.2876 17.5556 16.5832 17.5556Z" stroke="#02A9EB" stroke-width="3" stroke-linecap="round" stroke-linejoin="round"/>
<path d="M36.8335 11.7222V23.3888" stroke="#02A9EB" stroke-width="3" stroke-linecap="round" stroke-linejoin="round"/>
<path d="M42.6667 17.5557H31" stroke="#02A9EB" stroke-width="3" stroke-linecap="round" stroke-linejoin="round"/>
</svg>
