<svg width="622" height="622" viewBox="0 0 622 622" fill="none" xmlns="http://www.w3.org/2000/svg">
<circle cx="311" cy="311" r="311" fill="#5865F2"/>
<path fill-rule="evenodd" clip-rule="evenodd" d="M247.959 159.243C224.634 163.907 199.481 171.936 178.282 181.484L173.395 183.684L170.888 187.581C137.889 238.861 119.808 289.307 114.12 345.969C112.576 361.342 112.64 395.676 114.24 410.968L114.541 413.852L120.804 418.288C143.595 434.435 164.74 446.087 189.375 456.071C197.731 459.458 213.451 465 214.702 465C215.577 465 224.831 451.301 229.442 443.178C233.773 435.547 236.54 430.384 236.54 429.932C236.54 429.713 235.144 429.001 233.437 428.351C225.179 425.203 204.399 414.835 203.53 413.429C203.335 413.115 206.93 410.007 210.29 407.586C211.03 407.051 212.472 407.52 220.002 410.743C262.14 428.779 308.111 434.073 352.715 426.027C370.739 422.775 390.216 416.618 408.999 408.234L411.912 406.934L415.701 409.869C417.785 411.484 419.478 412.999 419.464 413.237C419.396 414.321 401.406 423.515 391.44 427.559C388.846 428.611 386.628 429.546 386.51 429.636C385.846 430.145 394.972 446.282 401.182 455.577C408.468 466.482 407.165 465.405 411.424 464.048C427.184 459.029 443.182 452.465 458.464 444.747C474.547 436.624 486.838 429.191 502.213 418.29L508.478 413.848L508.781 410.783C510.26 395.801 510.421 366.797 509.111 351.177C504.49 296.043 487.691 245.368 458.065 197.181C449.63 183.462 450.119 184.033 444.644 181.481C430.015 174.66 409.799 167.685 390.746 162.886C381.827 160.639 369.417 158 367.771 158C367.176 158 360.809 170.24 358.075 176.641L356.786 179.658L351.896 179.026C335.086 176.853 331.274 176.627 311.507 176.63C291.817 176.634 285.648 176.998 271.037 179.018L266.26 179.678L264.713 176.155C263.861 174.216 261.5 169.339 259.466 165.315C256.403 159.258 255.587 158.009 254.718 158.051C254.14 158.079 251.099 158.615 247.959 159.243ZM251.534 286.987C265.665 289.852 276.673 301.438 280.005 316.956C281.253 322.77 281.156 332.636 279.8 337.701C274.319 358.175 256.973 370.395 238.837 366.556C225.561 363.747 214.12 351.325 210.967 336.298C209.747 330.484 209.83 321.017 211.144 316.096C215.256 300.689 225.155 290.235 238.526 287.18C241.99 286.388 248.128 286.297 251.534 286.987ZM385.2 287.437C403.197 292.036 414.624 310.237 412.714 331.265C411.729 342.107 407.406 351.02 399.599 358.303C387.39 369.693 369.92 370.284 356.861 359.748C349.073 353.464 343.66 343.357 342.317 332.591C341.608 326.91 341.656 324.067 342.547 318.963C346.437 296.677 365.684 282.451 385.2 287.437Z" fill="white"/>
</svg>
