<svg width="250" height="66" viewBox="0 0 250 66" fill="none" xmlns="http://www.w3.org/2000/svg">
<path d="M73.4842 21.158H65.6882V44.528H70.2118V37.2669H73.4842C79.0665 37.2669 82.4832 34.0451 82.4832 29.2365C82.4832 24.3798 79.0665 21.158 73.4842 21.158ZM73.4842 33.0834H70.2118V25.3896H73.4842C76.2753 25.3896 77.8634 26.7841 77.8634 29.2846C77.8634 31.6889 76.2753 33.0834 73.4842 33.0834Z" fill="#426692"/>
<path d="M90.327 34.8626H98.5561V30.631H90.327V25.3896H99.3261V21.158H85.8035V44.528H99.6148V40.2964H90.327V34.8626Z" fill="#426692"/>
<path d="M107.796 34.8626H116.025V30.631H107.796V25.3896H116.795V21.158H103.272V44.528H117.084V40.2964H107.796V34.8626Z" fill="#426692"/>
<path d="M137.536 28.8037C137.536 24.3798 134.071 21.158 128.826 21.158H120.741V44.528H125.265V36.1129H128.826C128.97 36.1129 129.114 36.1129 129.211 36.1129L134.023 44.528H139.22L133.494 35.1992C135.996 33.9971 137.536 31.737 137.536 28.8037ZM128.826 32.2179H125.265V25.3896H128.826C131.376 25.3896 132.916 26.736 132.916 28.8037C132.916 31.16 131.184 32.2179 128.826 32.2179Z" fill="#426692"/>
<path d="M156.304 36.5937L145.958 21.158H141.867V44.528H146.391V29.0922L156.737 44.528H160.876V21.158H156.304V36.5937Z" fill="#426692"/>
<path d="M169.731 34.8626H177.912V30.631H169.731V25.3896H178.682V21.158H165.207V44.528H179.018V40.2964H169.731V34.8626Z" fill="#426692"/>
<path d="M181.665 25.3896H187.295V44.528H191.819V25.3896H197.449V21.158H181.665V25.3896Z" fill="#426692"/>
<path d="M205.294 21.158H200.77V44.528H205.294V21.158Z" fill="#426692"/>
<path d="M220.693 25.053C223.147 25.053 225.024 26.0628 226.227 27.5535L229.981 25.1011C227.863 22.4082 224.591 20.7733 220.693 20.7733C213.763 20.7733 208.806 26.0147 208.806 32.843C208.806 39.6713 213.763 44.9608 220.693 44.9608C224.591 44.9608 227.863 43.2777 229.981 40.633L226.227 38.1806C224.976 39.6713 223.099 40.6811 220.693 40.6811C215.832 40.6811 213.33 36.7861 213.33 32.8911C213.33 28.9961 215.832 25.053 220.693 25.053Z" fill="#426692"/>
<path d="M242.397 31.1119C240.231 30.631 237.247 30.2463 237.247 27.6016C237.247 25.7262 238.836 24.7164 240.809 24.7164C243.167 24.7164 244.37 26.0628 244.61 27.3131L249.038 26.2552C248.027 22.6968 244.947 20.7252 241.049 20.7252C236.189 20.7252 232.82 23.4661 232.82 27.8901C232.82 31.1119 234.408 33.5162 239.076 34.6703C242.782 35.5839 245.428 35.7282 245.428 38.0844C245.428 40.104 243.552 40.9696 241.242 40.9696C237.969 40.9696 236.574 39.2385 236.237 37.8921L231.858 39.2385C233.013 43.1335 236.911 44.9127 241.29 44.9127C247.401 44.9127 250 41.3543 250 37.6997C249.952 33.9971 247.931 32.3621 242.397 31.1119Z" fill="#426692"/>
<path d="M45.8133 26.4475L0 0L18.4793 26.4475H45.8133Z" fill="url(#paint0_linear_25_68)"/>
<path d="M18.4792 26.4475L8.3252 48.0864L45.8132 26.4475H18.4792Z" fill="url(#paint1_linear_25_68)"/>
<path d="M0 0V65.7341L8.32531 48.0864L18.4793 26.4475L0 0Z" fill="url(#paint2_linear_25_68)"/>
<defs>
<linearGradient id="paint0_linear_25_68" x1="28.2746" y1="-28.2023" x2="20.401" y2="32.7493" gradientUnits="userSpaceOnUse">
<stop stop-color="#02A9EB"/>
<stop offset="1" stop-color="#2C3C8D"/>
</linearGradient>
<linearGradient id="paint1_linear_25_68" x1="37.7365" y1="42.6336" x2="15.3238" y2="31.3414" gradientUnits="userSpaceOnUse">
<stop stop-color="#02A9EB"/>
<stop offset="1" stop-color="#2C3C8D"/>
</linearGradient>
<linearGradient id="paint2_linear_25_68" x1="9.66617" y1="24.4325" x2="-29.1172" y2="58.2973" gradientUnits="userSpaceOnUse">
<stop stop-color="#02A9EB"/>
<stop offset="1" stop-color="#2C3C8D"/>
</linearGradient>
</defs>
</svg>
