<svg width="59" height="67" viewBox="0 0 59 67" fill="none" xmlns="http://www.w3.org/2000/svg">
<path d="M14.2524 30.2677C19.0093 35.0299 23.6818 39.7024 28.407 44.4276C33.9286 39.8184 40.2729 36.5223 47.3133 35.1828C39.3394 27.2037 31.3498 19.2193 23.4023 11.2666C22.047 18.365 18.8247 24.7884 14.2524 30.2677Z" fill="url(#paint0_linear_703_2474)"/>
<path d="M11.4204 33.7012C8.10847 36.9498 4.62783 40.1931 1.36341 43.6421C-0.593133 45.7147 -0.382185 48.9896 1.60073 51.1097C3.52563 53.1611 5.51381 55.1546 7.57055 57.0742C9.66948 59.0413 12.9655 59.2522 15.0434 57.2904C18.4924 54.0207 21.7199 50.519 24.9368 47.2177C20.4806 42.7614 15.9294 38.2102 11.4256 33.7064L11.4204 33.7012Z" fill="url(#paint1_linear_703_2474)"/>
<path d="M31.3656 2.08493C31.0913 1.81069 30.8118 1.53119 30.5007 1.30442C28.2699 -0.325155 25.2217 0.70849 24.4412 3.35589C23.9402 5.05402 24.5889 6.37772 25.7755 7.5643C34.1765 15.9495 42.5669 24.3505 50.9626 32.7409C51.3002 33.0785 51.6482 33.416 52.0437 33.6691C53.3147 34.4813 54.6542 34.5498 55.9832 33.8326C57.3122 33.1154 57.9556 31.9446 58.061 30.5998C58.061 29.0968 57.3807 28.0948 56.4578 27.1719C48.0832 18.8184 39.7244 10.449 31.3603 2.0902L31.3656 2.08493Z" fill="url(#paint2_linear_703_2474)"/>
<path d="M33.9862 45.0234C32.9736 45.7987 31.9927 46.5581 30.7851 47.4863C31.6763 48.2931 32.4885 48.9418 33.2057 49.6854C34.1075 50.6294 34.0864 51.5945 33.2057 52.5648C32.3988 53.4614 31.5656 54.3315 30.7059 55.2597C29.2504 53.8833 27.9478 52.6545 26.6821 51.4573C24.8047 53.3348 23.0274 55.1067 21.0498 57.0844C21.361 57.3059 21.7512 57.5168 22.0624 57.8122C24.8152 60.449 27.5048 63.1544 30.3157 65.728C31.8029 67.0939 34.0864 66.8513 35.4945 65.4168C36.9184 63.9613 37.008 61.6409 35.6105 60.122C34.9196 59.3679 34.0864 58.7509 33.3059 58.06C35.2044 55.9136 37.5776 54.4581 37.7569 51.5259C37.9362 48.5357 36.0113 46.8007 33.9809 45.0234H33.9862Z" fill="url(#paint3_linear_703_2474)"/>
<path d="M50.646 10.9344C51.859 9.75836 53.0614 8.57178 54.2216 7.343C54.5855 6.95802 54.7912 6.42011 55.192 5.74507C54.7015 5.15969 54.3429 4.33172 53.7944 4.17879C53.1299 3.99421 52.1174 4.14187 51.5953 4.56376C50.2558 5.65015 49.0956 6.95275 47.8879 8.19734C46.9597 9.15716 46.9017 10.2541 47.6769 11.0768C48.4996 11.9417 49.6335 11.91 50.6513 10.9291L50.646 10.9344Z" fill="url(#paint4_linear_703_2474)"/>
<path d="M39.3448 5.86081C39.4134 6.98411 40.2044 7.76462 41.2328 7.79098C42.2612 7.81735 43.1524 7.05794 43.2104 5.95046C43.279 4.56875 43.2843 3.1765 43.2104 1.79479C43.1472 0.69786 42.2243 -0.0826475 41.2012 0.00700535C40.1095 0.101932 39.4556 0.740049 39.3554 1.83698C39.2921 2.52256 39.3448 3.22396 39.3448 3.91482C39.3448 4.56348 39.3132 5.21742 39.3501 5.86081H39.3448Z" fill="url(#paint5_linear_703_2474)"/>
<path d="M57.0798 15.6386C55.6559 15.5384 54.2162 15.5384 52.7975 15.6386C51.7164 15.7177 51.0625 16.4402 51.0625 17.5477C51.0625 18.6552 51.7164 19.3249 52.7975 19.4673C53.4779 19.557 54.1793 19.4832 54.8754 19.4832C55.6137 19.4832 56.3573 19.557 57.0798 19.4673C58.1662 19.3355 58.8201 18.6394 58.8201 17.5477C58.8201 16.4561 58.1714 15.7072 57.0798 15.6334V15.6386Z" fill="url(#paint6_linear_703_2474)"/>
<defs>
<linearGradient id="paint0_linear_703_2474" x1="30.7802" y1="1.10946" x2="30.7802" y2="61.9416" gradientUnits="userSpaceOnUse">
<stop stop-color="#079BDF"/>
<stop offset="1" stop-color="#1B66B1"/>
</linearGradient>
<linearGradient id="paint1_linear_703_2474" x1="12.4645" y1="1.10972" x2="12.4645" y2="61.9418" gradientUnits="userSpaceOnUse">
<stop stop-color="#079BDF"/>
<stop offset="1" stop-color="#1B66B1"/>
</linearGradient>
<linearGradient id="paint2_linear_703_2474" x1="41.1694" y1="1.10929" x2="41.1694" y2="61.9414" gradientUnits="userSpaceOnUse">
<stop stop-color="#079BDF"/>
<stop offset="1" stop-color="#1B66B1"/>
</linearGradient>
<linearGradient id="paint3_linear_703_2474" x1="29.4139" y1="1.10935" x2="29.4139" y2="61.9415" gradientUnits="userSpaceOnUse">
<stop stop-color="#079BDF"/>
<stop offset="1" stop-color="#1B66B1"/>
</linearGradient>
<linearGradient id="paint4_linear_703_2474" x1="51.1628" y1="1.10949" x2="51.1628" y2="61.9416" gradientUnits="userSpaceOnUse">
<stop stop-color="#079BDF"/>
<stop offset="1" stop-color="#1B66B1"/>
</linearGradient>
<linearGradient id="paint5_linear_703_2474" x1="41.2908" y1="1.10921" x2="41.2908" y2="61.9413" gradientUnits="userSpaceOnUse">
<stop stop-color="#079BDF"/>
<stop offset="1" stop-color="#1B66B1"/>
</linearGradient>
<linearGradient id="paint6_linear_703_2474" x1="54.9387" y1="1.10959" x2="54.9387" y2="61.9417" gradientUnits="userSpaceOnUse">
<stop stop-color="#079BDF"/>
<stop offset="1" stop-color="#1B66B1"/>
</linearGradient>
</defs>
</svg>
