<svg width="72" height="68" viewBox="0 0 72 68" fill="none" xmlns="http://www.w3.org/2000/svg">
<path d="M2.46821 4.92564H50.0264C51.387 4.92564 52.4892 3.82343 52.4892 2.46282C52.4892 1.1022 51.387 0 50.0264 0H2.46821C1.1076 0 0.00537109 1.1022 0.00537109 2.46282C0.00537109 3.82343 1.1076 4.92564 2.46821 4.92564Z" fill="url(#paint0_linear_703_2503)"/>
<path d="M50.021 62.6201H2.46281C1.10219 62.6201 0 63.7223 0 65.0829C0 66.4436 1.10219 67.5458 2.46281 67.5458H50.021C51.3816 67.5458 52.4838 66.4436 52.4838 65.0829C52.4838 63.7223 51.3816 62.6201 50.021 62.6201Z" fill="url(#paint1_linear_703_2503)"/>
<path d="M2.46821 51.8934H15.4257C16.7863 51.8934 17.8885 50.7912 17.8885 49.4306C17.8885 48.07 16.7863 46.9678 15.4257 46.9678H2.46821C1.1076 46.9678 0.00537109 48.07 0.00537109 49.4306C0.00537109 50.7912 1.1076 51.8934 2.46821 51.8934Z" fill="url(#paint2_linear_703_2503)"/>
<path d="M2.46821 36.2352H15.4257C16.7863 36.2352 17.8885 35.133 17.8885 33.7724C17.8885 32.4118 16.7863 31.3096 15.4257 31.3096H2.46821C1.1076 31.3096 0.00537109 32.4118 0.00537109 33.7724C0.00537109 35.133 1.1076 36.2352 2.46821 36.2352Z" fill="url(#paint3_linear_703_2503)"/>
<path d="M2.46821 20.5838H15.4257C16.7863 20.5838 17.8885 19.4816 17.8885 18.121C17.8885 16.7604 16.7863 15.6582 15.4257 15.6582H2.46821C1.1076 15.6582 0.00537109 16.7604 0.00537109 18.121C0.00537109 19.4816 1.1076 20.5838 2.46821 20.5838Z" fill="url(#paint4_linear_703_2503)"/>
<path d="M70.3035 57.7258L59.6559 47.0782C62.5986 43.5554 64.3706 39.0253 64.3706 34.0891C64.3706 22.8983 55.2681 13.7959 44.0774 13.7959C32.8866 13.7959 23.7842 22.8983 23.7842 34.0891C23.7842 45.2799 32.8866 54.3823 44.0774 54.3823C48.56 54.3823 52.7052 52.9215 56.0645 50.4481L66.8228 61.2064C67.3027 61.6864 67.9356 61.9289 68.5631 61.9289C69.1907 61.9289 69.8236 61.6864 70.3035 61.2064C71.2633 60.2466 71.2633 58.6856 70.3035 57.7205V57.7258ZM44.0774 49.4566C35.6025 49.4566 28.7098 42.5639 28.7098 34.0891C28.7098 25.6143 35.6025 18.7215 44.0774 18.7215C52.5522 18.7215 59.4449 25.6143 59.4449 34.0891C59.4449 42.5639 52.5522 49.4566 44.0774 49.4566Z" fill="url(#paint5_linear_703_2503)"/>
<defs>
<linearGradient id="paint0_linear_703_2503" x1="11.539" y1="-14.6292" x2="67.398" y2="50.29" gradientUnits="userSpaceOnUse">
<stop stop-color="#079BDF"/>
<stop offset="1" stop-color="#1B66B1"/>
</linearGradient>
<linearGradient id="paint1_linear_703_2503" x1="-19.423" y1="12.0137" x2="36.436" y2="76.9276" gradientUnits="userSpaceOnUse">
<stop stop-color="#079BDF"/>
<stop offset="1" stop-color="#1B66B1"/>
</linearGradient>
<linearGradient id="paint2_linear_703_2503" x1="-21.6221" y1="13.9069" x2="34.2369" y2="78.821" gradientUnits="userSpaceOnUse">
<stop stop-color="#079BDF"/>
<stop offset="1" stop-color="#1B66B1"/>
</linearGradient>
<linearGradient id="paint3_linear_703_2503" x1="-13.8803" y1="7.24568" x2="41.9787" y2="72.165" gradientUnits="userSpaceOnUse">
<stop stop-color="#079BDF"/>
<stop offset="1" stop-color="#1B66B1"/>
</linearGradient>
<linearGradient id="paint4_linear_703_2503" x1="-6.14377" y1="0.585975" x2="49.7152" y2="65.5053" gradientUnits="userSpaceOnUse">
<stop stop-color="#079BDF"/>
<stop offset="1" stop-color="#1B66B1"/>
</linearGradient>
<linearGradient id="paint5_linear_703_2503" x1="6.14893" y1="-9.98848" x2="62.0079" y2="54.9308" gradientUnits="userSpaceOnUse">
<stop stop-color="#079BDF"/>
<stop offset="1" stop-color="#1B66B1"/>
</linearGradient>
</defs>
</svg>
