<svg width="63" height="68" viewBox="0 0 63 68" fill="none" xmlns="http://www.w3.org/2000/svg">
<path d="M28.9104 54.7803C28.5307 54.7539 28.151 54.775 27.7713 54.775C20.5516 54.775 13.3266 54.775 6.10695 54.775H4.64613V4.63265H45.6281V6.30441C45.6281 14.5261 45.6281 22.7478 45.6281 30.9695C45.6281 32.6993 46.4402 33.6696 47.8483 33.7013C49.3249 33.7382 50.1898 32.7415 50.1898 30.9484C50.1951 21.5876 50.1951 12.2268 50.1898 2.86069C50.1898 0.80922 49.3935 0.00761756 47.3526 0.00234387C32.5282 -0.00292983 17.7038 0.00234387 2.88473 0.00234387C0.764703 0.00234387 0 0.788125 0 2.95034C0 20.7702 0 38.59 0 56.4151C0 58.5562 0.780523 59.3367 2.91637 59.3367C8.42739 59.342 13.9384 59.3367 19.4494 59.3367C22.5873 59.3367 25.7198 59.3631 28.8577 59.3209C30.2816 59.3051 31.2414 58.3031 31.215 57.0058C31.1939 55.7664 30.2605 54.8594 28.9104 54.7697V54.7803Z" fill="url(#paint0_linear_703_2495)"/>
<path d="M41.0661 11.9474C41.0555 9.92758 40.254 9.13652 38.1919 9.13652C33.8253 9.12598 29.4587 9.13652 25.0868 9.13652C20.6727 9.13652 16.2586 9.12598 11.8393 9.13652C9.96709 9.1418 9.13911 9.96449 9.12857 11.8208C9.11274 14.5737 9.11274 17.3319 9.12857 20.0847C9.13911 22.0149 9.96181 22.827 11.9289 22.827C20.7096 22.8323 29.4956 22.8376 38.2763 22.827C40.2381 22.827 41.0503 22.0149 41.0661 20.0689C41.0819 17.3635 41.0819 14.6581 41.0661 11.9474ZM36.3883 18.202H13.7747V13.8143H36.3883V18.202Z" fill="url(#paint1_linear_703_2495)"/>
<path d="M25.0922 29.9568C25.0764 28.2745 24.222 27.4044 22.5503 27.3938C18.9431 27.3675 15.3411 27.3727 11.7339 27.3938C9.97777 27.4044 9.14453 28.2587 9.13399 30.0412C9.11289 32.8416 9.11289 35.6419 9.13399 38.4422C9.14453 40.2142 9.98834 41.058 11.7498 41.0791C13.5534 41.1002 15.357 41.0791 17.1606 41.0791C18.9167 41.0791 20.6728 41.0949 22.429 41.0791C24.2168 41.058 25.0869 40.2353 25.1028 38.5002C25.1291 35.6524 25.1291 32.8046 25.1028 29.9568H25.0922ZM20.4144 36.4646H13.7801V32.0347H20.4144V36.4646Z" fill="url(#paint2_linear_703_2495)"/>
<path d="M11.6552 45.651C10.11 45.6616 9.12381 46.6003 9.13436 47.9451C9.14491 49.2793 10.1417 50.1864 11.6921 50.2075C13.4905 50.2339 15.2941 50.2128 17.0977 50.2075C18.9487 50.2075 20.7945 50.2339 22.6456 50.197C24.1011 50.1706 25.0662 49.2582 25.0979 47.9715C25.1295 46.6319 24.1328 45.6563 22.6087 45.6458C18.9593 45.6194 15.3099 45.6194 11.6605 45.6458L11.6552 45.651Z" fill="url(#paint3_linear_703_2495)"/>
<path d="M32.0276 27.3988C30.5985 27.4252 29.6492 28.4061 29.6703 29.7034C29.6914 30.9902 30.6512 31.9026 32.1014 31.9448C33.1878 31.9764 34.2795 31.95 35.3711 31.95C36.4628 31.95 37.5492 31.9764 38.6408 31.9448C40.0911 31.9026 41.0509 30.9902 41.072 29.7034C41.0931 28.4167 40.1333 27.4252 38.7147 27.3988C36.4892 27.3566 34.2637 27.3566 32.0382 27.3988H32.0276Z" fill="url(#paint4_linear_703_2495)"/>
<path d="M58.5906 47.3869C57.5728 45.019 58.4218 43.8746 59.9617 42.688C58.8543 41.5858 57.8523 40.5891 56.7448 39.4816C55.5951 41.1323 54.4032 41.7967 52.0459 40.858C49.6569 39.9088 49.504 38.4479 49.6939 36.502H45.1848C45.5065 38.6536 45.0161 39.8877 42.7484 40.8949C40.3119 41.9813 39.2783 40.7737 38.1022 39.5449C36.9895 40.6154 35.9928 41.57 34.88 42.6405C36.5043 43.864 37.2901 45.0295 36.3092 47.3869C35.3441 49.7073 33.994 50.0659 31.9531 49.7759V53.9843C33.2083 54.2585 34.59 54.1741 35.3441 54.8228C36.1352 55.5084 36.3039 56.9006 36.7838 57.9659C37.6645 59.9172 35.4443 60.2283 35.0541 61.3569C36.0561 62.38 37.0475 63.3978 38.1339 64.5106C39.3363 62.9706 40.4543 62.1374 42.8486 63.1394C45.2165 64.1309 45.4327 65.5231 45.2165 67.5429H49.7519C49.4196 65.4809 49.7519 64.152 52.0617 63.1394C54.4613 62.0899 55.5688 63.0076 56.8081 64.558C57.9208 63.4558 58.9228 62.4538 60.025 61.3622C58.3374 60.1281 57.6519 58.9521 58.5959 56.5947C59.5557 54.1899 61.0112 54.0686 62.9888 54.2638V49.7178C60.8688 50.1134 59.5768 49.6704 58.5906 47.3763V47.3869ZM47.4631 59.7959C43.1597 59.8012 39.6527 56.3205 39.6369 52.0277C39.6211 47.7666 43.1755 44.1963 47.4314 44.1963C51.7031 44.1963 55.247 47.7297 55.2523 51.9961C55.2576 56.2941 51.7664 59.7906 47.4683 59.7959H47.4631Z" fill="url(#paint5_linear_703_2495)"/>
<path d="M47.3951 46.4639C44.3364 46.485 41.8999 48.9741 41.921 52.0593C41.9421 55.1338 44.4313 57.5808 47.5059 57.5439C50.591 57.507 53.0064 55.0389 52.98 51.9538C52.9536 48.8739 50.4803 46.448 47.4004 46.4691L47.3951 46.4639Z" fill="url(#paint6_linear_703_2495)"/>
<defs>
<linearGradient id="paint0_linear_703_2495" x1="15.9529" y1="-0.435373" x2="32.312" y2="53.4249" gradientUnits="userSpaceOnUse">
<stop stop-color="#079BDF"/>
<stop offset="1" stop-color="#1B66B1"/>
</linearGradient>
<linearGradient id="paint1_linear_703_2495" x1="19.7603" y1="-1.59018" x2="36.1194" y2="52.2701" gradientUnits="userSpaceOnUse">
<stop stop-color="#079BDF"/>
<stop offset="1" stop-color="#1B66B1"/>
</linearGradient>
<linearGradient id="paint2_linear_703_2495" x1="7.37784" y1="2.16973" x2="23.7316" y2="56.03" gradientUnits="userSpaceOnUse">
<stop stop-color="#079BDF"/>
<stop offset="1" stop-color="#1B66B1"/>
</linearGradient>
<linearGradient id="paint3_linear_703_2495" x1="3.56533" y1="3.32435" x2="19.9243" y2="57.1846" gradientUnits="userSpaceOnUse">
<stop stop-color="#079BDF"/>
<stop offset="1" stop-color="#1B66B1"/>
</linearGradient>
<linearGradient id="paint4_linear_703_2495" x1="25.3564" y1="-3.28882" x2="41.7101" y2="50.5715" gradientUnits="userSpaceOnUse">
<stop stop-color="#079BDF"/>
<stop offset="1" stop-color="#1B66B1"/>
</linearGradient>
<linearGradient id="paint5_linear_703_2495" x1="30.2655" y1="-4.78057" x2="46.6246" y2="49.0797" gradientUnits="userSpaceOnUse">
<stop stop-color="#079BDF"/>
<stop offset="1" stop-color="#1B66B1"/>
</linearGradient>
<linearGradient id="paint6_linear_703_2495" x1="30.2081" y1="-4.76485" x2="46.5619" y2="49.0955" gradientUnits="userSpaceOnUse">
<stop stop-color="#079BDF"/>
<stop offset="1" stop-color="#1B66B1"/>
</linearGradient>
</defs>
</svg>
