<svg width="70" height="68" viewBox="0 0 70 68" fill="none" xmlns="http://www.w3.org/2000/svg">
<path d="M29.5063 55.8983C29.1214 55.8719 28.7311 55.893 28.3409 55.893C20.9735 55.893 13.6009 55.893 6.23352 55.893H4.74106V4.72758H46.5615V6.43098C46.5615 14.8214 46.5615 23.2119 46.5615 31.5971C46.5615 33.3585 47.3895 34.3499 48.8292 34.3869C50.3322 34.4238 51.2182 33.4059 51.2182 31.576C51.2234 22.0253 51.2234 12.4694 51.2182 2.9187C51.2182 0.825041 50.4007 0.00761756 48.3229 0.00234387C33.1979 -0.00292983 18.0677 0.00234387 2.94272 0.00234387C0.780508 0.00234387 0 0.803946 0 3.00835C0 21.1921 0 39.3811 0 57.5648C0 59.7481 0.796328 60.5444 2.97437 60.5497C8.59613 60.555 14.2232 60.5497 19.8449 60.5497C23.0461 60.5497 26.2472 60.576 29.4431 60.5339C30.8986 60.518 31.8742 59.4949 31.8479 58.1712C31.8215 56.9056 30.8775 55.9774 29.4958 55.893L29.5063 55.8983Z" fill="url(#paint0_linear_703_2482)"/>
<path d="M59.0442 32.8893C58.4378 32.5992 57.2248 32.7996 56.6922 33.2585C54.3137 35.3099 51.5345 36.3963 48.5127 36.6811C44.6629 37.0397 40.7867 37.1135 36.9211 37.2612C32.3277 37.4352 28.4252 41.0688 27.9716 45.6464C27.5128 50.2556 30.5821 54.5747 35.0805 55.6189C35.9191 55.8141 36.7787 55.8932 37.6805 56.0356C38.3028 59.089 38.9093 62.1214 39.5368 65.1485C39.906 66.9152 41.0135 67.8065 42.4057 67.49C43.8191 67.1683 44.4255 65.9448 44.0669 64.1623C43.529 61.4675 43.0017 58.7726 42.4268 55.8773C47.5107 56.2518 52.4416 56.3889 56.5498 59.801C57.1404 60.2914 58.3534 60.5446 59.0232 60.2756C59.6929 60.0067 60.4576 58.9466 60.4681 58.2294C60.5736 50.4771 60.5736 42.7247 60.4681 34.9671C60.4576 34.2394 59.714 33.2215 59.039 32.8998L59.0442 32.8893ZM39.5263 51.1416C37.2059 51.3894 35.0067 51.3947 33.4932 49.2799C32.3435 47.6715 32.2539 45.9259 33.2611 44.2277C34.6692 41.844 36.9738 41.7438 39.5263 42.0022V51.1416ZM55.8062 53.346C52.0197 52.5549 48.2542 51.7639 44.3095 50.9412V42.2079C48.2121 41.3905 52.0197 40.5994 55.8062 39.8084V53.3512V53.346Z" fill="url(#paint1_linear_703_2482)"/>
<path d="M41.9102 12.19C41.8996 10.128 41.0769 9.32109 38.978 9.32109C34.5217 9.31055 30.0654 9.32109 25.6091 9.32109C21.1054 9.32109 16.5964 9.31055 12.0927 9.32109C10.1836 9.32637 9.33452 10.1649 9.32397 12.0581C9.30288 14.869 9.30815 17.6799 9.32397 20.4908C9.33452 22.4632 10.173 23.2911 12.1823 23.2911C21.1423 23.3017 30.1076 23.3017 39.0676 23.2911C41.0716 23.2911 41.8996 22.4632 41.9102 20.475C41.926 17.7115 41.926 14.9534 41.9102 12.19ZM37.1375 18.5764H14.0598V14.0991H37.1375V18.5764Z" fill="url(#paint2_linear_703_2482)"/>
<path d="M25.6091 30.5692C25.5933 28.8499 24.7178 27.9639 23.0144 27.9534C19.3334 27.927 15.6576 27.9323 11.9766 27.9534C10.1835 27.9639 9.33447 28.8341 9.32393 30.6535C9.30283 33.5119 9.30283 36.3702 9.32393 39.2233C9.33975 41.0322 10.1994 41.8918 11.9924 41.9129C13.8329 41.934 15.6735 41.9129 17.514 41.9182C19.307 41.9182 21.0948 41.934 22.8879 41.9182C24.7126 41.8971 25.5986 41.0585 25.6144 39.2866C25.6408 36.3808 25.6408 33.475 25.6144 30.5692H25.6091ZM20.8364 37.2087H14.065V32.6839H20.8364V37.2087Z" fill="url(#paint3_linear_703_2482)"/>
<path d="M11.892 46.5852C10.3152 46.5958 9.30789 47.5556 9.31844 48.9267C9.32899 50.2926 10.3468 51.2102 11.9289 51.2313C13.7642 51.2577 15.6047 51.2366 17.4452 51.2366C19.3332 51.2366 21.2212 51.263 23.1039 51.2261C24.5911 51.1997 25.572 50.2662 25.6036 48.9584C25.6353 47.5925 24.6174 46.5958 23.0617 46.5852C19.3385 46.5588 15.61 46.5588 11.8867 46.5852H11.892Z" fill="url(#paint4_linear_703_2482)"/>
<path d="M66.5908 40.6888C65.3515 39.8872 64.0173 40.1351 63.2684 41.232C62.5459 42.2867 62.7727 43.5261 63.8538 44.449C65.6679 45.9941 65.6732 47.1755 63.8907 48.689C62.7516 49.6541 62.5406 50.9461 63.3475 52.0167C64.1175 53.0345 65.3831 53.2508 66.575 52.4861C68.7319 51.0991 69.7761 49.074 69.8658 46.5268C69.734 44.0376 68.695 42.0547 66.5908 40.6994V40.6888Z" fill="url(#paint5_linear_703_2482)"/>
<path d="M32.6809 27.9639C31.2254 27.9902 30.2497 28.9922 30.2708 30.3159C30.2919 31.6291 31.2729 32.5573 32.7495 32.6047C33.8622 32.6416 34.975 32.61 36.0825 32.61C37.1952 32.61 38.308 32.6364 39.4154 32.6047C40.8973 32.5573 41.873 31.6344 41.8994 30.3212C41.9205 29.0081 40.9395 27.9955 39.4946 27.9691C37.2216 27.927 34.9539 27.927 32.6809 27.9691V27.9639Z" fill="url(#paint6_linear_703_2482)"/>
<defs>
<linearGradient id="paint0_linear_703_2482" x1="128.272" y1="-274.989" x2="-100.401" y2="375.848" gradientUnits="userSpaceOnUse">
<stop stop-color="#079BDF"/>
<stop offset="1" stop-color="#1B66B1"/>
</linearGradient>
<linearGradient id="paint1_linear_703_2482" x1="101.846" y1="-112.354" x2="-19.2069" y2="232.172" gradientUnits="userSpaceOnUse">
<stop stop-color="#079BDF"/>
<stop offset="1" stop-color="#1B66B1"/>
</linearGradient>
<linearGradient id="paint2_linear_703_2482" x1="58.8335" y1="-78.2434" x2="-12.3351" y2="124.298" gradientUnits="userSpaceOnUse">
<stop stop-color="#079BDF"/>
<stop offset="1" stop-color="#1B66B1"/>
</linearGradient>
<linearGradient id="paint3_linear_703_2482" x1="42.7908" y1="-37.1451" x2="-11.4545" y2="117.253" gradientUnits="userSpaceOnUse">
<stop stop-color="#079BDF"/>
<stop offset="1" stop-color="#1B66B1"/>
</linearGradient>
<linearGradient id="paint4_linear_703_2482" x1="29.849" y1="13.6562" x2="3.317" y2="89.1598" gradientUnits="userSpaceOnUse">
<stop stop-color="#079BDF"/>
<stop offset="1" stop-color="#1B66B1"/>
</linearGradient>
<linearGradient id="paint5_linear_703_2482" x1="83.6829" y1="-4.37495" x2="45.1796" y2="105.202" gradientUnits="userSpaceOnUse">
<stop stop-color="#079BDF"/>
<stop offset="1" stop-color="#1B66B1"/>
</linearGradient>
<linearGradient id="paint6_linear_703_2482" x1="46.2343" y1="1.40552" x2="24.5067" y2="63.2449" gradientUnits="userSpaceOnUse">
<stop stop-color="#079BDF"/>
<stop offset="1" stop-color="#1B66B1"/>
</linearGradient>
</defs>
</svg>
