<svg width="69" height="68" viewBox="0 0 69 68" fill="none" xmlns="http://www.w3.org/2000/svg">
<path d="M54.5749 50.7548C54.5749 55.0212 54.7542 58.929 54.5116 62.8104C54.3481 65.4051 51.7376 67.4882 49.0217 67.504C39.1757 67.5568 29.3297 67.5568 19.4784 67.504C16.504 67.4882 14.152 65.2258 13.7986 62.2778C13.7195 61.6344 13.7195 60.9752 13.7195 60.3213C13.7195 52.0837 13.7195 43.8462 13.7195 35.6087C13.7195 35.0708 13.7195 34.5381 13.7195 33.5098C15.6814 35.6456 17.2898 37.465 18.988 39.2001C19.5997 39.8224 20.3538 40.4341 21.1607 40.7136C23.2386 41.4361 25.4061 39.949 25.6645 37.7709C25.7172 37.3227 25.7488 36.8638 25.7014 36.4156C25.4904 34.4379 25.6803 32.8664 27.8583 31.8116C29.4721 31.0311 30.1788 29.2012 30.1946 27.3343C30.2315 23.4159 30.2684 19.4976 30.1893 15.5792C30.1207 12.2726 27.505 9.73067 24.1931 9.62519C22.4844 9.57246 20.7757 9.60937 19.0671 9.60937C17.3637 9.60937 15.6603 9.60937 13.6299 9.60937C13.7617 7.72139 13.6668 5.89669 14.0571 4.17746C14.6108 1.73574 16.9681 0.0376079 19.5417 0.0270605C29.3402 -0.00458169 39.1335 -0.0151291 48.932 0.0323342C51.9749 0.0481553 54.5591 2.4055 54.6118 5.38514C54.7278 12.4624 54.6487 19.545 54.6487 26.8649C53.383 26.8649 52.149 26.8649 50.9149 26.8649C48.7053 26.8649 46.4956 26.828 44.2859 26.8755C40.6576 26.9493 38.0207 29.565 37.968 33.1775C37.9153 36.8428 37.9522 40.5132 37.9575 44.1785C37.9575 46.7837 39.144 48.7297 41.4539 49.8741C42.2819 50.2854 42.5245 50.76 42.477 51.6038C42.4243 52.6058 42.4559 53.6131 42.477 54.6151C42.5087 56.2447 43.2892 57.3891 44.8133 57.9639C46.2794 58.5177 47.5978 58.1696 48.6683 57.0568C50.5774 55.0634 52.4443 53.033 54.5749 50.7548ZM34.0813 7.26257C36.5916 7.26257 39.1019 7.25203 41.6069 7.26257C42.4401 7.26257 43.1942 7.10964 43.2153 6.11818C43.2364 5.04762 42.4559 4.85249 41.5594 4.85249C36.6443 4.85777 31.724 4.82085 26.8089 4.90523C26.2551 4.91578 25.327 5.56444 25.2531 6.0338C25.0791 7.05163 25.9598 7.27312 26.8616 7.26785C29.2717 7.24675 31.6765 7.26257 34.0866 7.26257H34.0813Z" fill="url(#paint0_linear_703_2490)"/>
<path d="M14.036 12.009C17.2529 12.009 20.4646 11.9879 23.6815 12.0142C26.2815 12.0353 27.7845 13.5331 27.8109 16.1383C27.8425 19.7033 27.8425 23.2683 27.8109 26.8386C27.7898 29.0747 26.6875 30.4194 24.4726 30.7939C23.4653 30.9626 23.2755 31.4478 23.2966 32.3232C23.3388 33.879 23.3598 35.44 23.2702 36.9905C23.2438 37.4598 22.9116 38.1929 22.5741 38.2878C22.1258 38.4144 21.3769 38.1876 21.0341 37.8395C19.2727 36.0518 17.5693 34.2007 15.9134 32.318C15.0116 31.2896 13.9463 30.8519 12.6015 30.8677C9.89082 30.8994 7.17486 30.8941 4.46418 30.8677C1.45817 30.8466 0.0184579 29.4122 0.00791055 26.4378C-0.00263685 23.0732 -0.00263685 19.7086 0.00791055 16.3439C0.0184579 13.4751 1.48982 12.0195 4.39035 12.009C7.60731 11.9931 10.819 12.009 14.036 12.009ZM13.8883 23.5267C11.378 23.5267 8.86245 23.5373 6.35217 23.5214C5.45564 23.5162 4.6435 23.7008 4.65932 24.7502C4.67514 25.7944 5.50837 25.9421 6.39435 25.9421C11.4202 25.9263 16.4408 25.9315 21.4666 25.9421C22.3578 25.9421 23.1753 25.7628 23.1594 24.7133C23.1436 23.6638 22.3051 23.5214 21.4244 23.5267C18.9141 23.5425 16.3986 23.532 13.8883 23.532V23.5267ZM13.8883 19.3289C16.3986 19.3289 18.9088 19.3183 21.4191 19.3341C22.2946 19.3394 23.1436 19.2234 23.1594 18.1634C23.1753 17.1192 22.3526 16.9188 21.4666 16.9188C16.446 16.9241 11.4255 16.9293 6.39963 16.9188C5.51892 16.9188 4.68041 17.0823 4.65932 18.1212C4.63822 19.1759 5.46091 19.3447 6.35217 19.3341C8.86245 19.313 11.3727 19.3289 13.883 19.3289H13.8883Z" fill="url(#paint1_linear_703_2490)"/>
<path d="M54.3164 29.2643C57.4753 29.2643 60.6396 29.2537 63.7985 29.2643C66.6358 29.2801 68.1546 30.8042 68.1651 33.6362C68.1809 37.0482 68.1809 40.4603 68.1651 43.8671C68.1493 46.6095 66.6199 48.1599 63.8829 48.1863C61.0245 48.2127 58.1556 48.0861 55.3078 48.2548C54.3217 48.3129 53.1667 48.835 52.4442 49.5153C50.6248 51.2345 49.0427 53.1963 47.2866 54.9894C46.8963 55.3849 46.0683 55.7646 45.6623 55.6011C45.2562 55.4376 44.9398 54.5991 44.9028 54.0348C44.7974 52.5371 44.8448 51.0288 44.8765 49.5205C44.8923 48.7242 44.7393 48.2865 43.7848 48.1125C41.4222 47.6747 40.378 46.3194 40.3675 43.8988C40.3464 40.4392 40.3411 36.9744 40.3675 33.5149C40.3886 30.7725 41.9232 29.2695 44.6919 29.259C47.9036 29.2432 51.1153 29.259 54.3269 29.259L54.3164 29.2643ZM48.431 38.6831C48.431 39.9857 48.3782 41.2936 48.4415 42.5962C48.5522 44.7267 50.2609 45.7498 52.1225 44.7531C54.3744 43.5454 56.5894 42.2587 58.7621 40.9244C60.5605 39.8222 60.571 37.7549 58.7779 36.6422C56.6052 35.2974 54.385 34.0264 52.1384 32.8135C50.2715 31.8062 48.5522 32.8082 48.4415 34.9229C48.3782 36.1728 48.431 37.4279 48.431 38.6831Z" fill="url(#paint2_linear_703_2490)"/>
<path d="M50.8887 42.7121V34.8701C53.1986 36.1938 55.345 37.4173 57.7181 38.7779C55.4188 40.1016 53.2829 41.3357 50.8887 42.7121Z" fill="url(#paint3_linear_703_2490)"/>
<defs>
<linearGradient id="paint0_linear_703_2490" x1="4.80171" y1="-0.0309506" x2="56.542" y2="59.3403" gradientUnits="userSpaceOnUse">
<stop stop-color="#079BDF"/>
<stop offset="1" stop-color="#1B66B1"/>
</linearGradient>
<linearGradient id="paint1_linear_703_2490" x1="-0.651302" y1="4.72071" x2="51.0837" y2="64.0973" gradientUnits="userSpaceOnUse">
<stop stop-color="#079BDF"/>
<stop offset="1" stop-color="#1B66B1"/>
</linearGradient>
<linearGradient id="paint2_linear_703_2490" x1="12.7649" y1="-6.97133" x2="64.5052" y2="52.4" gradientUnits="userSpaceOnUse">
<stop stop-color="#079BDF"/>
<stop offset="1" stop-color="#1B66B1"/>
</linearGradient>
<linearGradient id="paint3_linear_703_2490" x1="12.7387" y1="-6.94505" x2="64.479" y2="52.4263" gradientUnits="userSpaceOnUse">
<stop stop-color="#079BDF"/>
<stop offset="1" stop-color="#1B66B1"/>
</linearGradient>
</defs>
</svg>
